HIERARCHY
ROOT Hips
{
 OFFSET 0.000000 0.000000 0.000000
 CHANNELS 6 Xposition Yposition Zposition Yrotation Xrotation Zrotation
 JOINT Chest
 {
  OFFSET 0.000000 9.910571 -0.011835
  CHANNELS 3 Yrotation Xrotation Zrotation
  JOINT Chest2
  {
   OFFSET 0.000000 10.789473 0.021497
   CHANNELS 3 Yrotation Xrotation Zrotation
   JOINT Chest3
   {
    OFFSET 0.000000 9.748205 0.000000
    CHANNELS 3 Yrotation Xrotation Zrotation
    JOINT Chest4
    {
     OFFSET 0.000000 9.748205 0.000000
     CHANNELS 3 Yrotation Xrotation Zrotation
     JOINT Neck
     {
      OFFSET 0.000000 13.998479 0.000000
      CHANNELS 3 Yrotation Xrotation Zrotation
      JOINT Head
      {
       OFFSET 0.000000 9.082285 0.051121
       CHANNELS 3 Yrotation Xrotation Zrotation
       End Site
       {
        OFFSET 0.000000 17.246134 0.026702
       }
      }
     }
     JOINT RightCollar
     {
      OFFSET -3.284495 7.824262 0.000000
      CHANNELS 3 Yrotation Xrotation Zrotation
      JOINT RightShoulder
      {
       OFFSET -15.534540 0.000000 0.000000
       CHANNELS 3 Yrotation Xrotation Zrotation
       JOINT RightElbow
       {
        OFFSET 0.000000 -28.251216 0.000000
        CHANNELS 3 Yrotation Xrotation Zrotation
        JOINT RightWrist
        {
         OFFSET 0.000000 -23.418114 0.012537
         CHANNELS 3 Yrotation Xrotation Zrotation
         End Site
         {
          OFFSET 0.000000 -17.723959 0.000000
         }
        }
       }
      }
     }
     JOINT LeftCollar
     {
      OFFSET 3.284495 7.824262 0.000000
      CHANNELS 3 Yrotation Xrotation Zrotation
      JOINT LeftShoulder
      {
       OFFSET 15.534540 0.000000 0.000000
       CHANNELS 3 Yrotation Xrotation Zrotation
       JOINT LeftElbow
       {
        OFFSET 0.000000 -28.251216 0.000000
        CHANNELS 3 Yrotation Xrotation Zrotation
        JOINT LeftWrist
        {
         OFFSET 0.000000 -23.418114 0.012537
         CHANNELS 3 Yrotation Xrotation Zrotation
         End Site
         {
          OFFSET 0.000000 -17.723959 0.000000
         }
        }
       }
      }
     }
    }
   }
  }
 }
 JOINT RightHip
 {
  OFFSET -8.142657 0.057990 0.005917
  CHANNELS 3 Yrotation Xrotation Zrotation
  JOINT RightKnee
  {
   OFFSET 0.000000 -49.716894 0.008478
   CHANNELS 3 Yrotation Xrotation Zrotation
   JOINT RightAnkle
   {
    OFFSET 0.000000 -43.994153 0.004166
    CHANNELS 3 Yrotation Xrotation Zrotation
    JOINT RightToe
    {
     OFFSET 0.000000 -7.619154 17.822051
     CHANNELS 3 Yrotation Xrotation Zrotation
     End Site
     {
      OFFSET 0.000000 -1.595627 7.159905
     }
    }
   }
  }
 }
 JOINT LeftHip
 {
  OFFSET 8.142657 0.057990 0.005917
  CHANNELS 3 Yrotation Xrotation Zrotation
  JOINT LeftKnee
  {
   OFFSET 0.000000 -49.716894 0.008478
   CHANNELS 3 Yrotation Xrotation Zrotation
   JOINT LeftAnkle
   {
    OFFSET 0.000000 -43.994153 0.004166
    CHANNELS 3 Yrotation Xrotation Zrotation
    JOINT LeftToe
    {
     OFFSET 0.000000 -7.619154 17.822051
     CHANNELS 3 Yrotation Xrotation Zrotation
     End Site
     {
      OFFSET 0.000000 -1.595627 7.159905
     }
    }
   }
  }
 }
}
MOTION
Frames: 13
Frame Time: 0.008333
245.894682 56.887321 256.207828 -56.489938 -54.510556 2.816971 -1.437033 22.282869 -1.598992 -0.438596 9.879218 -0.749851 -0.438596 9.879218 -0.749851 -0.315898 7.409968 -0.553833 1.936591 14.791436 3.152254 2.426817 -8.726136 5.172102 0.796038 10.490365 10.697402 47.175486 -33.245251 -36.310367 8.800573 -7.085287 -7.402802 18.585492 -13.151678 -49.580241 -0.155275 8.413857 -9.970170 -28.664175 -36.758324 29.660522 -25.091184 -12.763981 14.405880 -24.814525 -13.374662 44.392472 -11.729389 -30.008976 -7.180660 -123.834898 70.521349 -139.790312 -5.783533 -18.098631 6.399158 0.151297 0.509616 0.066490 7.967537 -32.230288 8.100787 149.267805 79.463631 154.357912 2.244514 -9.804747 -2.144228 -0.195387 -0.336703 -0.082637
245.895040 56.888118 256.207496 -56.489902 -54.503437 2.821720 -1.437044 22.285382 -1.601171 -0.438531 9.880822 -0.750627 -0.438531 9.880822 -0.750627 -0.315835 7.411171 -0.554413 1.953778 14.785680 3.149268 2.460039 -8.737288 5.159964 0.799322 10.477588 10.694726 47.174221 -33.234178 -36.313562 8.825439 -7.073391 -7.395323 18.589644 -13.156954 -49.683054 -0.151932 8.387311 -9.980901 -28.670160 -36.738724 29.654514 -25.185960 -12.752048 14.438881 -24.817304 -13.354518 44.483133 -11.731800 -30.016880 -7.179081 -123.833869 70.520402 -139.793423 -5.787191 -18.099370 6.399947 0.151234 0.509755 0.066632 7.964041 -32.232736 8.093368 149.221867 79.462139 154.304529 2.246458 -9.805465 -2.140293 -0.199450 -0.335712 -0.086741
245.895163 56.888536 256.205993 -56.492258 -54.498770 2.821496 -1.433266 22.285531 -1.596936 -0.438369 9.882598 -0.751426 -0.438369 9.882598 -0.751426 -0.315698 7.412503 -0.555012 1.969248 14.781700 3.146612 2.489963 -8.745093 5.149085 0.801250 10.463050 10.690210 47.173982 -33.229595 -36.306353 8.850472 -7.057499 -7.386537 18.602159 -13.181815 -49.794474 -0.153995 8.363490 -9.991412 -28.676883 -36.724271 29.650189 -25.214791 -12.743671 14.448770 -24.845130 -13.334792 44.552257 -11.740984 -30.024273 -7.170149 -123.833076 70.520908 -139.796942 -5.789085 -18.095597 6.393617 0.154075 0.506742 0.068429 7.955280 -32.236598 8.095704 149.203257 79.458949 154.281420 2.245561 -9.804423 -2.143582 -0.199233 -0.337508 -0.086758
245.891820 56.888868 256.201779 -56.498124 -54.496969 2.817677 -1.420163 22.287988 -1.583923 -0.435858 9.883034 -0.751428 -0.435858 9.883034 -0.751428 -0.313818 7.412827 -0.555054 1.982891 14.782226 3.145105 2.516139 -8.744472 5.141029 0.783411 10.460427 10.688068 47.187996 -33.233454 -36.297353 8.867049 -7.026300 -7.388880 18.638316 -13.235482 -49.924641 -0.163403 8.351940 -9.997508 -28.697409 -36.711387 29.656616 -25.232577 -12.745085 14.463813 -24.818276 -13.302849 44.555581 -11.744274 -30.021766 -7.150774 -123.805164 70.510679 -139.765439 -5.792772 -18.099090 6.387964 0.162993 0.508313 0.072549 7.944443 -32.236867 8.107715 149.202301 79.456769 154.282855 2.243495 -9.809185 -2.154744 -0.194198 -0.335668 -0.085266
245.889383 56.887906 256.197725 -56.498324 -54.490845 2.820078 -1.420542 22.286292 -1.583774 -0.434636 9.883286 -0.751499 -0.434636 9.883286 -0.751499 -0.312903 7.413014 -0.555126 1.995715 14.782598 3.140320 2.542028 -8.744142 5.127139 0.783627 10.454693 10.683297 47.181636 -33.236536 -36.286342 8.905236 -7.013864 -7.383398 18.694798 -13.275257 -50.095716 -0.170143 8.337255 -10.007829 -28.718457 -36.696549 29.664693 -25.191125 -12.747915 14.458859 -24.799309 -13.262757 44.507707 -11.746580 -30.027642 -7.148384 -123.802752 70.506942 -139.760941 -5.787037 -18.108816 6.380209 0.160263 0.512628 0.073773 7.940121 -32.244392 8.108209 149.209213 79.459224 154.291294 2.237869 -9.801083 -2.161576 -0.190502 -0.340296 -0.083041
245.886542 56.886812 256.194552 -56.496757 -54.487036 2.819998 -1.420697 22.284938 -1.583638 -0.432696 9.883314 -0.751067 -0.432696 9.883314 -0.751067 -0.311459 7.413033 -0.554835 2.007408 14.786745 3.135221 2.566009 -8.736773 5.113069 0.780086 10.447831 10.681741 47.185319 -33.228779 -36.276776 8.948203 -6.990696 -7.389429 18.764218 -13.319389 -50.301592 -0.180117 8.330957 -10.015238 -28.732677 -36.689495 29.665430 -25.168016 -12.745735 14.465711 -24.719723 -13.204434 44.378345 -11.748745 -30.030603 -7.151495 -123.793509 70.500576 -139.748941 -5.768660 -18.121200 6.374262 0.149264 0.516812 0.071117 7.939621 -32.251765 8.109205 149.224169 79.457043 154.308348 2.234562 -9.796231 -2.163316 -0.187685 -0.346387 -0.082144
245.882220 56.886939 256.189863 -56.494517 -54.489911 2.813630 -1.413586 22.285088 -1.575857 -0.430976 9.883605 -0.750876 -0.430976 9.883605 -0.750876 -0.310175 7.413249 -0.554720 2.018094 14.791339 3.131271 2.587675 -8.728537 5.101540 0.769645 10.442681 10.686807 47.174212 -33.223191 -36.256211 9.021534 -6.969519 -7.385773 18.822905 -13.353036 -50.563262 -0.190771 8.329185 -10.015033 -28.739411 -36.697713 29.669679 -25.102224 -12.746772 14.439970 -24.662430 -13.143944 44.185433 -11.758268 -30.022392 -7.142066 -123.769269 70.501512 -139.726794 -5.762686 -18.126774 6.372655 0.143960 0.520462 0.068080 7.935573 -32.252065 8.123244 149.252896 79.457342 154.340627 2.220873 -9.797479 -2.166739 -0.179145 -0.347764 -0.078185
245.877875 56.885503 256.186262 -56.491044 -54.488478 2.810976 -1.410532 22.283284 -1.572464 -0.430790 9.883001 -0.750912 -0.430790 9.883001 -0.750912 -0.310036 7.412796 -0.554750 2.030243 14.796666 3.124708 2.613096 -8.718993 5.084548 0.761557 10.439924 10.688876 47.174685 -33.210634 -36.242020 9.099574 -6.948389 -7.396252 18.902032 -13.372152 -50.878241 -0.191484 8.333907 -10.019049 -28.745942 -36.715611 29.678565 -25.068780 -12.742582 14.415624 -24.549135 -13.075891 43.911720 -11.766165 -30.023950 -7.137583 -123.774686 70.501240 -139.735326 -5.761203 -18.129409 6.375164 0.136750 0.518106 0.062422 7.932964 -32.255801 8.122512 149.280953 79.454219 154.375086 2.224793 -9.801598 -2.174291 -0.177150 -0.348094 -0.077391
245.872997 56.884502 256.181063 -56.492012 -54.490364 2.810080 -1.407675 22.282877 -1.569460 -0.430110 9.883756 -0.751429 -0.430110 9.883756 -0.751429 -0.309517 7.413361 -0.555148 2.046691 14.800842 3.118064 2.646580 -8.711684 5.065766 0.761109 10.432179 10.689607 47.174635 -33.190799 -36.221838 9.177390 -6.930627 -7.417031 19.015580 -13.380836 -51.268792 -0.189978 8.335427 -10.023817 -28.740982 -36.740164 29.684679 -25.000493 -12.754418 14.377539 -24.456029 -12.984375 43.561244 -11.765694 -30.021528 -7.130023 -123.763057 70.491844 -139.720195 -5.757265 -18.129572 6.373447 0.140574 0.514195 0.061643 7.932344 -32.258477 8.130644 149.331895 79.455725 154.428762 2.226899 -9.798817 -2.178885 -0.175158 -0.351631 -0.074240
245.866258 56.883503 256.173712 -56.487582 -54.491070 2.800078 -1.404728 22.286397 -1.558102 -0.429460 9.883652 -0.749712 -0.429460 9.883652 -0.749712 -0.309059 7.413281 -0.553874 2.062798 14.805944 3.108993 2.680373 -8.702656 5.042563 0.765332 10.421290 10.685638 47.153967 -33.169056 -36.200053 9.268909 -6.922054 -7.437219 19.145654 -13.402940 -51.703222 -0.186568 8.330810 -10.035831 -28.750460 -36.759398 29.690741 -24.946064 -12.761712 14.350421 -24.318499 -12.887916 43.125736 -11.773475 -30.012413 -7.105412 -123.721042 70.477854 -139.674484 -5.769005 -18.136425 6.370930 0.154018 0.518710 0.067295 7.931512 -32.262857 8.142319 149.369084 79.457121 154.471651 2.233213 -9.799311 -2.176712 -0.179427 -0.351550 -0.076883
245.860282 56.882460 256.165835 -56.485460 -54.489341 2.798625 -1.400747 22.285158 -1.555416 -0.428153 9.883585 -0.749307 -0.428153 9.883585 -0.749307 -0.308088 7.413229 -0.553592 2.079903 14.813956 3.102419 2.715148 -8.688224 5.023651 0.758778 10.411567 10.689069 47.152374 -33.151731 -36.181035 9.354555 -6.897009 -7.457295 19.274815 -13.446637 -52.183190 -0.192261 8.325794 -10.037919 -28.747970 -36.782832 29.698545 -24.840428 -12.781280 14.296655 -24.193832 -12.779544 42.621953 -11.777693 -30.011297 -7.098090 -123.701799 70.470810 -139.652030 -5.762277 -18.140141 6.367382 0.152271 0.518586 0.065683 7.935475 -32.269239 8.149897 149.398354 79.461255 154.507389 2.225515 -9.794024 -2.177404 -0.174170 -0.353743 -0.075355
245.854904 56.881321 256.158619 -56.483167 -54.485864 2.799239 -1.398956 22.283821 -1.554600 -0.427955 9.883576 -0.749075 -0.427955 9.883576 -0.749075 -0.307944 7.413222 -0.553422 2.102764 14.822841 3.097650 2.760041 -8.672284 5.005924 0.777817 10.404440 10.694717 47.130413 -33.138971 -36.161136 9.441243 -6.878349 -7.480818 19.394320 -13.491621 -52.680722 -0.218220 8.322255 -10.042514 -28.728691 -36.812743 29.709814 -24.745218 -12.798333 14.252177 -24.024277 -12.677618 42.021281 -11.774458 -30.011904 -7.096755 -123.687617 70.467342 -139.635842 -5.749458 -18.140444 6.373238 0.143487 0.517497 0.058954 7.943057 -32.277803 8.150409 149.434648 79.462725 154.552557 2.222574 -9.789792 -2.179867 -0.174004 -0.356633 -0.073759
245.850091 56.879384 256.152332 -56.483679 -54.483445 2.801897 -1.398108 22.283286 -1.549202 -0.428257 9.884212 -0.747399 -0.428257 9.884212 -0.747399 -0.308196 7.413698 -0.552162 2.123355 14.832097 3.088968 2.802175 -8.655616 4.981732 0.772599 10.393593 10.685246 47.124415 -33.122617 -36.134419 9.521006 -6.865014 -7.503523 19.518248 -13.491345 -53.207640 -0.228941 8.314090 -10.058129 -28.723364 -36.835330 29.723210 -24.587374 -12.826669 14.181013 -23.902351 -12.570411 41.371505 -11.773594 -30.014463 -7.091039 -123.670527 70.459700 -139.622145 -5.738475 -18.137946 6.380210 0.136283 0.514210 0.053798 7.954449 -32.286771 8.153045 149.507077 79.463963 154.630942 2.224387 -9.788768 -2.179570 -0.175048 -0.358957 -0.071052
